<svg width="20" height="21" viewBox="0 0 20 21" fill="none" xmlns="http://www.w3.org/2000/svg">
<path d="M6.51 11.48C6.31222 11.48 6.11888 11.5386 5.95443 11.6485C5.78998 11.7584 5.66181 11.9146 5.58612 12.0973C5.51043 12.28 5.49063 12.4811 5.52921 12.6751C5.5678 12.8691 5.66304 13.0473 5.80289 13.1871C5.94274 13.327 6.12093 13.4222 6.31491 13.4608C6.50889 13.4994 6.70995 13.4796 6.89268 13.4039C7.07541 13.3282 7.23159 13.2 7.34147 13.0356C7.45135 12.8711 7.51 12.6778 7.51 12.48C7.51 12.2148 7.40464 11.9604 7.2171 11.7729C7.02957 11.5854 6.77521 11.48 6.51 11.48ZM6.51 7C6.31222 7 6.11888 7.05865 5.95443 7.16853C5.78998 7.27841 5.66181 7.43459 5.58612 7.61732C5.51043 7.80004 5.49063 8.00111 5.52921 8.19509C5.5678 8.38907 5.66304 8.56725 5.80289 8.70711C5.94274 8.84696 6.12093 8.9422 6.31491 8.98078C6.50889 9.01937 6.70995 8.99957 6.89268 8.92388C7.07541 8.84819 7.23159 8.72002 7.34147 8.55557C7.45135 8.39112 7.51 8.19778 7.51 8C7.51 7.73478 7.40464 7.48043 7.2171 7.29289C7.02957 7.10536 6.77521 7 6.51 7ZM10 9C9.73478 9 9.48043 9.10536 9.29289 9.29289C9.10535 9.48043 9 9.73478 9 10V11C9 11.2652 9.10535 11.5196 9.29289 11.7071C9.48043 11.8946 9.73478 12 10 12C10.2652 12 10.5196 11.8946 10.7071 11.7071C10.8946 11.5196 11 11.2652 11 11V10C11 9.73478 10.8946 9.48043 10.7071 9.29289C10.5196 9.10536 10.2652 9 10 9ZM18.5 7.57C18.155 7.37151 17.774 7.24365 17.3791 7.19386C16.9843 7.14408 16.5834 7.17336 16.2 7.28C15.8009 7.38689 15.4293 7.57782 15.11 7.84L3.51 1.13C3.35798 1.04223 3.18553 0.996025 3.01 0.996025C2.83446 0.996025 2.66202 1.04223 2.51 1.13C2.35553 1.21683 2.22691 1.34314 2.1373 1.496C2.04769 1.64887 2.0003 1.8228 2 2V15.17C1.40985 15.3691 0.898168 15.7504 0.53872 16.259C0.179272 16.7676 -0.00936864 17.3773 -3.09511e-06 18C-0.000281181 18.782 0.304784 19.5332 0.850206 20.0935C1.39563 20.6539 2.13829 20.9791 2.92 21H3.5C6.77673 20.9923 9.99309 20.1177 12.8225 18.465C15.6519 16.8123 17.9937 14.4404 19.61 11.59C19.9833 10.908 20.0772 10.1077 19.872 9.3578C19.6668 8.60789 19.1785 7.96692 18.51 7.57H18.5ZM4 3.73L13.89 9.44C12.7928 11.0772 11.326 12.4335 9.60799 13.3993C7.88999 14.3651 5.96896 14.9135 4 15V3.73ZM17.87 10.61C16.3855 13.2257 14.2174 15.3883 11.598 16.8662C8.97856 18.3441 6.00648 19.0817 3 19C2.73478 19 2.48043 18.8946 2.29289 18.7071C2.10535 18.5196 2 18.2652 2 18C1.99921 17.866 2.02537 17.7332 2.0769 17.6095C2.12844 17.4859 2.20431 17.3738 2.3 17.28C2.48786 17.0989 2.73907 16.9984 3 17H3.51C6.07771 16.999 8.5991 16.3161 10.8164 15.0212C13.0337 13.7263 14.8674 11.8658 16.13 9.63C16.1907 9.52031 16.2736 9.42451 16.3735 9.34874C16.4734 9.27297 16.588 9.2189 16.71 9.19C16.9621 9.12079 17.2314 9.1531 17.46 9.28C17.6894 9.40332 17.8617 9.6113 17.9401 9.85969C18.0186 10.1081 17.997 10.3773 17.88 10.61H17.87Z" fill="#F2C94C"/>
</svg>
